{"title":"Pk (2014) BRRip 720p - x264 - AC3 5.1 -={SPARROW}=-","uid":11826821,"size":2199630558,"categoryP":"video","categoryS":"other","magnet":"?xt=urn:btih:b24bdcc2576d1090115b104db3f678ed8a44c3b3&amp;dn=Pk+%282014%29+BRRip+720p+-+x264+-+AC3+5.1+-%3D%7BSPARROW%7D%3D-&amp;tr=udp%3A%2F%2Ftracker.openbittorrent.com%3A80&amp;tr=udp%3A%2F%2Fopen.demonii.com%3A1337&amp;tr=udp%3A%2F%2Ftracker.coppersurfer.tk%3A6969&amp;tr=udp%3A%2F%2Fexodus.desync.com%3A6969","seeders":1,"leechers":0,"uploader":"SS132203","files":4,"time":1429524858,"description":"Pk (2014) BRRip 720p - x264 - AC3 5.1 -={SPARROW}=-\n &lt;a href=&quot;\nhttp://imgsparrow.co/image/Ld&quot; rel=&quot;nofollow&quot; target=&quot;_NEW&quot;&gt;\nhttp://imgsparrow.co/image/Ld&lt;/a&gt;\n &lt;a href=&quot;\nhttp://imgsparrow.co/image/9b&quot; rel=&quot;nofollow&quot; target=&quot;_NEW&quot;&gt;\nhttp://imgsparrow.co/image/9b&lt;/a&gt;\n\nFormat                      : Matroska\nFormat version              : Version 2\nFile size                   : 2.01 GiB\nDuration                    : 2h 32mn\nOverall bit rate            : 1 887 Kbps\nSource : 1080p Team Telly (Thanks)\nMovie name                  : Secret Telly Encoder\nWriting application         : HandBrake 0.10.0 2014112200\nWriting library             : Lavf55.12.0\n\nVideo\nID                          : 1\nFormat                      : AVC\nFormat/Info                 : Advanced Video Codec\nFormat profile              : &lt;a class=&quot;__cf_email__&quot; href=&quot;/cdn-cgi/l/email-protection&quot; data-cfemail=&quot;b3fed2daddf3ff879d82&quot;&gt;[email&amp;#160;protected]&lt;/a&gt;&lt;script cf-hash='f9e31' type=&quot;text/javascript&quot;&gt;\n/* &lt;![CDATA[ */!function(){try{var t=&quot;currentScript&quot;in document?document.currentScript:function(){for(var t=document.getElementsByTagName(&quot;script&quot;),e=t.length;e--;)if(t[e].getAttribute(&quot;cf-hash&quot;))return t[e]}();if(t&amp;&amp;t.previousSibling){var e,r,n,i,c=t.previousSibling,a=c.getAttribute(&quot;data-cfemail&quot;);if(a){for(e=&quot;&quot;,r=parseInt(a.substr(0,2),16),n=2;a.length-n;n+=2)i=parseInt(a.substr(n,2),16)^r,e+=String.fromCharCode(i);e=document.createTextNode(e),c.parentNode.replaceChild(e,c)}}}catch(u){}}();/* ]]&gt; */&lt;/script&gt;\nFormat settings, CABAC      : Yes\nFormat settings, ReFrames   : 4 frames\nCodec ID                    : V_MPEG4/ISO/AVC\nDuration                    : 2h 32mn\nBit rate                    : 1 500 Kbps\nWidth                       : 1 280 pixels\nHeight                      : 544 pixels\nDisplay aspect ratio        : 2.35:1\nFrame rate mode             : Constant\nFrame rate                  : 23.976 fps\nColor space                 : YUV\nChroma subsampling          : 4:2:0\nBit depth                   : 8 bits\nScan type                   : Progressive\nBits/(Pixel*Frame)          : 0.090\nStream size                 : 1.56 GiB (78%)\nWriting library             : x264 core 142 r2479 dd79a61\n\nAudio\nID                          : 2\nFormat                      : AC-3\nFormat/Info                 : Audio Coding 3\nMode extension              : CM (complete main)\nFormat settings, Endianness : Big\nCodec ID                    : A_AC3\nDuration                    : 2h 32mn\nBit rate mode               : Constant\nBit rate                    : 384 Kbps\nChannel(s)                  : 6 channels\nChannel positions           : Front: L C R, Side: L R, LFE\nSampling rate               : 48.0 KHz\nBit depth                   : 16 bits\nCompression mode            : Lossy\nDelay relative to video     : 27ms\nStream size                 : 419 MiB (20%)\n &lt;a href=&quot;\nhttp://imgsparrow.co/image/9h&quot; rel=&quot;nofollow&quot; target=&quot;_NEW&quot;&gt;\nhttp://imgsparrow.co/image/9h&lt;/a&gt;\n &lt;a href=&quot;\nhttp://imgsparrow.co/image/LQ&quot; rel=&quot;nofollow&quot; target=&quot;_NEW&quot;&gt;\nhttp://imgsparrow.co/image/LQ&lt;/a&gt; &lt;a href=&quot;\nhttp://imgsparrow.co/image/LZ&quot; rel=&quot;nofollow&quot; target=&quot;_NEW&quot;&gt;\nhttp://imgsparrow.co/image/LZ&lt;/a&gt; &lt;a href=&quot;\nhttp://imgsparrow.co/image/La&quot; rel=&quot;nofollow&quot; target=&quot;_NEW&quot;&gt;\nhttp://imgsparrow.co/image/La&lt;/a&gt; &lt;a href=&quot;\nhttp://imgsparrow.co/image/Lf&quot; rel=&quot;nofollow&quot; target=&quot;_NEW&quot;&gt;\nhttp://imgsparrow.co/image/Lf&lt;/a&gt; &lt;a href=&quot;\nhttp://imgsparrow.co/image/LI&quot; rel=&quot;nofollow&quot; target=&quot;_NEW&quot;&gt;\nhttp://imgsparrow.co/image/LI&lt;/a&gt; &lt;a href=&quot;\nhttp://imgsparrow.co/image/LP&quot; rel=&quot;nofollow&quot; target=&quot;_NEW&quot;&gt;\nhttp://imgsparrow.co/image/LP&lt;/a&gt; &lt;a href=&quot;\nhttp://imgsparrow.co/image/LW&quot; rel=&quot;nofollow&quot; target=&quot;_NEW&quot;&gt;\nhttp://imgsparrow.co/image/LW&lt;/a&gt; &lt;a href=&quot;\nhttp://imgsparrow.co/image/LX&quot; rel=&quot;nofollow&quot; target=&quot;_NEW&quot;&gt;\nhttp://imgsparrow.co/image/LX&lt;/a&gt; &lt;a href=&quot;\nhttp://imgsparrow.co/image/LY&quot; rel=&quot;nofollow&quot; target=&quot;_NEW&quot;&gt;\nhttp://imgsparrow.co/image/LY&lt;/a&gt; &lt;a href=&quot;\nhttp://imgsparrow.co/image/Lc&quot; rel=&quot;nofollow&quot; target=&quot;_NEW&quot;&gt;\nhttp://imgsparrow.co/image/Lc&lt;/a&gt;\n\nSample Within Torrent\n &lt;a href=&quot;\nhttp://imgsparrow.org/images/2015/02/22/SPARROW.gif&quot; rel=&quot;nofollow&quot; target=&quot;_NEW&quot;&gt;\nhttp://imgsparrow.org/images/2015/02/22/SPARROW.gif&lt;/a&gt;","torrent":{"xt":"urn:btih:b24bdcc2576d1090115b104db3f678ed8a44c3b3","amp;dn":"Pk+%282014%29+BRRip+720p+-+x264+-+AC3+5.1+-%3D%7BSPARROW%7D%3D-","amp;tr":["udp%3A%2F%2Ftracker.openbittorrent.com%3A80","udp%3A%2F%2Fopen.demonii.com%3A1337","udp%3A%2F%2Ftracker.coppersurfer.tk%3A6969","udp%3A%2F%2Fexodus.desync.com%3A6969"],"infoHash":"b24bdcc2576d1090115b104db3f678ed8a44c3b3","infoHashBuffer":{"type":"Buffer","data":[178,75,220,194,87,109,16,144,17,91,16,77,179,246,120,237,138,68,195,179]},"announce":[],"urlList":[]}}